<svg aria-roledescription="timeline" role="graphics-document document" viewBox="0 -61.66666603088379 1190 1009.4666137695312" style="max-width: 1190px; background-color: rgb(255, 255, 255);" xmlns:xlink="http://www.w3.org/1999/xlink" xmlns="http://www.w3.org/2000/svg" width="100%" id="mermaid-1719430557489"><style>#mermaid-1719430557489{font-family:"trebuchet ms",verdana,arial,sans-serif;font-size:16px;fill:#333;}#mermaid-1719430557489 .error-icon{fill:#552222;}#mermaid-1719430557489 .error-text{fill:#552222;stroke:#552222;}#mermaid-1719430557489 .edge-thickness-normal{stroke-width:2px;}#mermaid-1719430557489 .edge-thickness-thick{stroke-width:3.5px;}#mermaid-1719430557489 .edge-pattern-solid{stroke-dasharray:0;}#mermaid-1719430557489 .edge-pattern-dashed{stroke-dasharray:3;}#mermaid-1719430557489 .edge-pattern-dotted{stroke-dasharray:2;}#mermaid-1719430557489 .marker{fill:#333333;stroke:#333333;}#mermaid-1719430557489 .marker.cross{stroke:#333333;}#mermaid-1719430557489 svg{font-family:"trebuchet ms",verdana,arial,sans-serif;font-size:16px;}#mermaid-1719430557489 .edge{stroke-width:3;}#mermaid-1719430557489 .section--1 rect,#mermaid-1719430557489 .section--1 path,#mermaid-1719430557489 .section--1 circle,#mermaid-1719430557489 .section--1 path{fill:hsl(240, 100%, 76.2745098039%);}#mermaid-1719430557489 .section--1 text{fill:#ffffff;}#mermaid-1719430557489 .node-icon--1{font-size:40px;color:#ffffff;}#mermaid-1719430557489 .section-edge--1{stroke:hsl(240, 100%, 76.2745098039%);}#mermaid-1719430557489 .edge-depth--1{stroke-width:17;}#mermaid-1719430557489 .section--1 line{stroke:hsl(60, 100%, 86.2745098039%);stroke-width:3;}#mermaid-1719430557489 .lineWrapper line{stroke:#ffffff;}#mermaid-1719430557489 .disabled,#mermaid-1719430557489 .disabled circle,#mermaid-1719430557489 .disabled text{fill:lightgray;}#mermaid-1719430557489 .disabled text{fill:#efefef;}#mermaid-1719430557489 .section-0 rect,#mermaid-1719430557489 .section-0 path,#mermaid-1719430557489 .section-0 circle,#mermaid-1719430557489 .section-0 path{fill:hsl(60, 100%, 73.5294117647%);}#mermaid-1719430557489 .section-0 text{fill:black;}#mermaid-1719430557489 .node-icon-0{font-size:40px;color:black;}#mermaid-1719430557489 .section-edge-0{stroke:hsl(60, 100%, 73.5294117647%);}#mermaid-1719430557489 .edge-depth-0{stroke-width:14;}#mermaid-1719430557489 .section-0 line{stroke:hsl(240, 100%, 83.5294117647%);stroke-width:3;}#mermaid-1719430557489 .lineWrapper line{stroke:black;}#mermaid-1719430557489 .disabled,#mermaid-1719430557489 .disabled circle,#mermaid-1719430557489 .disabled text{fill:lightgray;}#mermaid-1719430557489 .disabled text{fill:#efefef;}#mermaid-1719430557489 .section-1 rect,#mermaid-1719430557489 .section-1 path,#mermaid-1719430557489 .section-1 circle,#mermaid-1719430557489 .section-1 path{fill:hsl(80, 100%, 76.2745098039%);}#mermaid-1719430557489 .section-1 text{fill:black;}#mermaid-1719430557489 .node-icon-1{font-size:40px;color:black;}#mermaid-1719430557489 .section-edge-1{stroke:hsl(80, 100%, 76.2745098039%);}#mermaid-1719430557489 .edge-depth-1{stroke-width:11;}#mermaid-1719430557489 .section-1 line{stroke:hsl(260, 100%, 86.2745098039%);stroke-width:3;}#mermaid-1719430557489 .lineWrapper line{stroke:black;}#mermaid-1719430557489 .disabled,#mermaid-1719430557489 .disabled circle,#mermaid-1719430557489 .disabled text{fill:lightgray;}#mermaid-1719430557489 .disabled text{fill:#efefef;}#mermaid-1719430557489 .section-2 rect,#mermaid-1719430557489 .section-2 path,#mermaid-1719430557489 .section-2 circle,#mermaid-1719430557489 .section-2 path{fill:hsl(270, 100%, 76.2745098039%);}#mermaid-1719430557489 .section-2 text{fill:#ffffff;}#mermaid-1719430557489 .node-icon-2{font-size:40px;color:#ffffff;}#mermaid-1719430557489 .section-edge-2{stroke:hsl(270, 100%, 76.2745098039%);}#mermaid-1719430557489 .edge-depth-2{stroke-width:8;}#mermaid-1719430557489 .section-2 line{stroke:hsl(90, 100%, 86.2745098039%);stroke-width:3;}#mermaid-1719430557489 .lineWrapper line{stroke:#ffffff;}#mermaid-1719430557489 .disabled,#mermaid-1719430557489 .disabled circle,#mermaid-1719430557489 .disabled text{fill:lightgray;}#mermaid-1719430557489 .disabled text{fill:#efefef;}#mermaid-1719430557489 .section-3 rect,#mermaid-1719430557489 .section-3 path,#mermaid-1719430557489 .section-3 circle,#mermaid-1719430557489 .section-3 path{fill:hsl(300, 100%, 76.2745098039%);}#mermaid-1719430557489 .section-3 text{fill:black;}#mermaid-1719430557489 .node-icon-3{font-size:40px;color:black;}#mermaid-1719430557489 .section-edge-3{stroke:hsl(300, 100%, 76.2745098039%);}#mermaid-1719430557489 .edge-depth-3{stroke-width:5;}#mermaid-1719430557489 .section-3 line{stroke:hsl(120, 100%, 86.2745098039%);stroke-width:3;}#mermaid-1719430557489 .lineWrapper line{stroke:black;}#mermaid-1719430557489 .disabled,#mermaid-1719430557489 .disabled circle,#mermaid-1719430557489 .disabled text{fill:lightgray;}#mermaid-1719430557489 .disabled text{fill:#efefef;}#mermaid-1719430557489 .section-4 rect,#mermaid-1719430557489 .section-4 path,#mermaid-1719430557489 .section-4 circle,#mermaid-1719430557489 .section-4 path{fill:hsl(330, 100%, 76.2745098039%);}#mermaid-1719430557489 .section-4 text{fill:black;}#mermaid-1719430557489 .node-icon-4{font-size:40px;color:black;}#mermaid-1719430557489 .section-edge-4{stroke:hsl(330, 100%, 76.2745098039%);}#mermaid-1719430557489 .edge-depth-4{stroke-width:2;}#mermaid-1719430557489 .section-4 line{stroke:hsl(150, 100%, 86.2745098039%);stroke-width:3;}#mermaid-1719430557489 .lineWrapper line{stroke:black;}#mermaid-1719430557489 .disabled,#mermaid-1719430557489 .disabled circle,#mermaid-1719430557489 .disabled text{fill:lightgray;}#mermaid-1719430557489 .disabled text{fill:#efefef;}#mermaid-1719430557489 .section-5 rect,#mermaid-1719430557489 .section-5 path,#mermaid-1719430557489 .section-5 circle,#mermaid-1719430557489 .section-5 path{fill:hsl(0, 100%, 76.2745098039%);}#mermaid-1719430557489 .section-5 text{fill:black;}#mermaid-1719430557489 .node-icon-5{font-size:40px;color:black;}#mermaid-1719430557489 .section-edge-5{stroke:hsl(0, 100%, 76.2745098039%);}#mermaid-1719430557489 .edge-depth-5{stroke-width:-1;}#mermaid-1719430557489 .section-5 line{stroke:hsl(180, 100%, 86.2745098039%);stroke-width:3;}#mermaid-1719430557489 .lineWrapper line{stroke:black;}#mermaid-1719430557489 .disabled,#mermaid-1719430557489 .disabled circle,#mermaid-1719430557489 .disabled text{fill:lightgray;}#mermaid-1719430557489 .disabled text{fill:#efefef;}#mermaid-1719430557489 .section-6 rect,#mermaid-1719430557489 .section-6 path,#mermaid-1719430557489 .section-6 circle,#mermaid-1719430557489 .section-6 path{fill:hsl(30, 100%, 76.2745098039%);}#mermaid-1719430557489 .section-6 text{fill:black;}#mermaid-1719430557489 .node-icon-6{font-size:40px;color:black;}#mermaid-1719430557489 .section-edge-6{stroke:hsl(30, 100%, 76.2745098039%);}#mermaid-1719430557489 .edge-depth-6{stroke-width:-4;}#mermaid-1719430557489 .section-6 line{stroke:hsl(210, 100%, 86.2745098039%);stroke-width:3;}#mermaid-1719430557489 .lineWrapper line{stroke:black;}#mermaid-1719430557489 .disabled,#mermaid-1719430557489 .disabled circle,#mermaid-1719430557489 .disabled text{fill:lightgray;}#mermaid-1719430557489 .disabled text{fill:#efefef;}#mermaid-1719430557489 .section-7 rect,#mermaid-1719430557489 .section-7 path,#mermaid-1719430557489 .section-7 circle,#mermaid-1719430557489 .section-7 path{fill:hsl(90, 100%, 76.2745098039%);}#mermaid-1719430557489 .section-7 text{fill:black;}#mermaid-1719430557489 .node-icon-7{font-size:40px;color:black;}#mermaid-1719430557489 .section-edge-7{stroke:hsl(90, 100%, 76.2745098039%);}#mermaid-1719430557489 .edge-depth-7{stroke-width:-7;}#mermaid-1719430557489 .section-7 line{stroke:hsl(270, 100%, 86.2745098039%);stroke-width:3;}#mermaid-1719430557489 .lineWrapper line{stroke:black;}#mermaid-1719430557489 .disabled,#mermaid-1719430557489 .disabled circle,#mermaid-1719430557489 .disabled text{fill:lightgray;}#mermaid-1719430557489 .disabled text{fill:#efefef;}#mermaid-1719430557489 .section-8 rect,#mermaid-1719430557489 .section-8 path,#mermaid-1719430557489 .section-8 circle,#mermaid-1719430557489 .section-8 path{fill:hsl(150, 100%, 76.2745098039%);}#mermaid-1719430557489 .section-8 text{fill:black;}#mermaid-1719430557489 .node-icon-8{font-size:40px;color:black;}#mermaid-1719430557489 .section-edge-8{stroke:hsl(150, 100%, 76.2745098039%);}#mermaid-1719430557489 .edge-depth-8{stroke-width:-10;}#mermaid-1719430557489 .section-8 line{stroke:hsl(330, 100%, 86.2745098039%);stroke-width:3;}#mermaid-1719430557489 .lineWrapper line{stroke:black;}#mermaid-1719430557489 .disabled,#mermaid-1719430557489 .disabled circle,#mermaid-1719430557489 .disabled text{fill:lightgray;}#mermaid-1719430557489 .disabled text{fill:#efefef;}#mermaid-1719430557489 .section-9 rect,#mermaid-1719430557489 .section-9 path,#mermaid-1719430557489 .section-9 circle,#mermaid-1719430557489 .section-9 path{fill:hsl(180, 100%, 76.2745098039%);}#mermaid-1719430557489 .section-9 text{fill:black;}#mermaid-1719430557489 .node-icon-9{font-size:40px;color:black;}#mermaid-1719430557489 .section-edge-9{stroke:hsl(180, 100%, 76.2745098039%);}#mermaid-1719430557489 .edge-depth-9{stroke-width:-13;}#mermaid-1719430557489 .section-9 line{stroke:hsl(0, 100%, 86.2745098039%);stroke-width:3;}#mermaid-1719430557489 .lineWrapper line{stroke:black;}#mermaid-1719430557489 .disabled,#mermaid-1719430557489 .disabled circle,#mermaid-1719430557489 .disabled text{fill:lightgray;}#mermaid-1719430557489 .disabled text{fill:#efefef;}#mermaid-1719430557489 .section-10 rect,#mermaid-1719430557489 .section-10 path,#mermaid-1719430557489 .section-10 circle,#mermaid-1719430557489 .section-10 path{fill:hsl(210, 100%, 76.2745098039%);}#mermaid-1719430557489 .section-10 text{fill:black;}#mermaid-1719430557489 .node-icon-10{font-size:40px;color:black;}#mermaid-1719430557489 .section-edge-10{stroke:hsl(210, 100%, 76.2745098039%);}#mermaid-1719430557489 .edge-depth-10{stroke-width:-16;}#mermaid-1719430557489 .section-10 line{stroke:hsl(30, 100%, 86.2745098039%);stroke-width:3;}#mermaid-1719430557489 .lineWrapper line{stroke:black;}#mermaid-1719430557489 .disabled,#mermaid-1719430557489 .disabled circle,#mermaid-1719430557489 .disabled text{fill:lightgray;}#mermaid-1719430557489 .disabled text{fill:#efefef;}#mermaid-1719430557489 .section-root rect,#mermaid-1719430557489 .section-root path,#mermaid-1719430557489 .section-root circle{fill:hsl(240, 100%, 46.2745098039%);}#mermaid-1719430557489 .section-root text{fill:#ffffff;}#mermaid-1719430557489 .icon-container{height:100%;display:flex;justify-content:center;align-items:center;}#mermaid-1719430557489 .edge{fill:none;}#mermaid-1719430557489 .eventWrapper{filter:brightness(120%);}#mermaid-1719430557489 :root{--mermaid-font-family:"trebuchet ms",verdana,arial,sans-serif;}</style><g/><g/><defs><marker orient="auto" markerHeight="4" markerWidth="6" refY="2" refX="5" id="arrowhead"><path d="M 0,0 V 4 L6,2 Z"/></marker></defs><g transform="translate(100, 50)"><g class="timeline-node section--1"><g><path d="M0 79.7333267211914 v-74.7333267211914 q0,-5 5,-5 h180 q5,0 5,5 v79.7333267211914 H0 Z" class="node-bkg node-undefined" id="node-undefined"/><line y2="84.7333267211914" x2="190" y1="84.7333267211914" x1="0" class="node-line--1"/></g><g transform="translate(95, 10)"><text text-anchor="middle" dominant-baseline="middle" alignment-baseline="middle" dy="1em"><tspan dy="1em" x="0">Sas   -   2   semains</tspan></text></g></g></g><g transform="translate(100, 184.73332672119142)" class="taskWrapper"><g class="timeline-node section--1"><g><path d="M0 62.133332061767575 v-57.133332061767575 q0,-5 5,-5 h180 q5,0 5,5 v62.133332061767575 H0 Z" class="node-bkg node-undefined" id="node-undefined"/><line y2="67.13333206176758" x2="190" y1="67.13333206176758" x1="0" class="node-line--1"/></g><g transform="translate(95, 10)"><text text-anchor="middle" dominant-baseline="middle" alignment-baseline="middle" dy="1em"><tspan dy="1em" x="0">2   semains</tspan></text></g></g></g><g class="lineWrapper"><line stroke-dasharray="5,5" marker-end="url(#arrowhead)" stroke="black" stroke-width="2" y2="897.7999450683594" x2="195" y1="251.866658782959" x1="195"/></g><g transform="translate(100, 384.7333267211914)" class="eventWrapper"><g class="timeline-node section--1"><g><path d="M0 45 v-40 q0,-5 5,-5 h180 q5,0 5,5 v45 H0 Z" class="node-bkg node-undefined" id="node-undefined"/><line y2="50" x2="190" y1="50" x1="0" class="node-line--1"/></g><g transform="translate(95, 10)"><text text-anchor="middle" dominant-baseline="middle" alignment-baseline="middle" dy="1em"><tspan dy="1em" x="0">Outillage</tspan></text></g></g></g><g transform="translate(100, 444.7333267211914)" class="eventWrapper"><g class="timeline-node section--1"><g><path d="M0 45 v-40 q0,-5 5,-5 h180 q5,0 5,5 v45 H0 Z" class="node-bkg node-undefined" id="node-undefined"/><line y2="50" x2="190" y1="50" x1="0" class="node-line--1"/></g><g transform="translate(95, 10)"><text text-anchor="middle" dominant-baseline="middle" alignment-baseline="middle" dy="1em"><tspan dy="1em" x="0">Gestion   de   version</tspan></text></g></g></g><g transform="translate(100, 504.7333267211914)" class="eventWrapper"><g class="timeline-node section--1"><g><path d="M0 45 v-40 q0,-5 5,-5 h180 q5,0 5,5 v45 H0 Z" class="node-bkg node-undefined" id="node-undefined"/><line y2="50" x2="190" y1="50" x1="0" class="node-line--1"/></g><g transform="translate(95, 10)"><text text-anchor="middle" dominant-baseline="middle" alignment-baseline="middle" dy="1em"><tspan dy="1em" x="0">Documentation</tspan></text></g></g></g><g transform="translate(100, 564.7333267211914)" class="eventWrapper"><g class="timeline-node section--1"><g><path d="M0 45 v-40 q0,-5 5,-5 h180 q5,0 5,5 v45 H0 Z" class="node-bkg node-undefined" id="node-undefined"/><line y2="50" x2="190" y1="50" x1="0" class="node-line--1"/></g><g transform="translate(95, 10)"><text text-anchor="middle" dominant-baseline="middle" alignment-baseline="middle" dy="1em"><tspan dy="1em" x="0">HTML   et   CSS</tspan></text></g></g></g><g transform="translate(100, 624.7333267211914)" class="eventWrapper"><g class="timeline-node section--1"><g><path d="M0 45 v-40 q0,-5 5,-5 h180 q5,0 5,5 v45 H0 Z" class="node-bkg node-undefined" id="node-undefined"/><line y2="50" x2="190" y1="50" x1="0" class="node-line--1"/></g><g transform="translate(95, 10)"><text text-anchor="middle" dominant-baseline="middle" alignment-baseline="middle" dy="1em"><tspan dy="1em" x="0">Modélisation</tspan></text></g></g></g><g transform="translate(100, 684.7333267211914)" class="eventWrapper"><g class="timeline-node section--1"><g><path d="M0 45 v-40 q0,-5 5,-5 h180 q5,0 5,5 v45 H0 Z" class="node-bkg node-undefined" id="node-undefined"/><line y2="50" x2="190" y1="50" x1="0" class="node-line--1"/></g><g transform="translate(95, 10)"><text text-anchor="middle" dominant-baseline="middle" alignment-baseline="middle" dy="1em"><tspan dy="1em" x="0">Programmation</tspan></text></g></g></g><g transform="translate(300, 50)"><g class="timeline-node section-0"><g><path d="M0 79.7333267211914 v-74.7333267211914 q0,-5 5,-5 h380 q5,0 5,5 v79.7333267211914 H0 Z" class="node-bkg node-undefined" id="node-undefined"/><line y2="84.7333267211914" x2="390" y1="84.7333267211914" x1="0" class="node-line-0"/></g><g transform="translate(195, 10)"><text text-anchor="middle" dominant-baseline="middle" alignment-baseline="middle" dy="1em"><tspan dy="1em" x="0">Web   et   Mobile   -   4   mois</tspan></text></g></g></g><g transform="translate(300, 184.73332672119142)" class="taskWrapper"><g class="timeline-node section-0"><g><path d="M0 62.133332061767575 v-57.133332061767575 q0,-5 5,-5 h180 q5,0 5,5 v62.133332061767575 H0 Z" class="node-bkg node-undefined" id="node-undefined"/><line y2="67.13333206176758" x2="190" y1="67.13333206176758" x1="0" class="node-line-0"/></g><g transform="translate(95, 10)"><text text-anchor="middle" dominant-baseline="middle" alignment-baseline="middle" dy="1em"><tspan dy="1em" x="0">Lundi,Mardi   -   Web</tspan></text></g></g></g><g class="lineWrapper"><line stroke-dasharray="5,5" marker-end="url(#arrowhead)" stroke="black" stroke-width="2" y2="897.7999450683594" x2="395" y1="251.866658782959" x1="395"/></g><g transform="translate(300, 384.7333267211914)" class="eventWrapper"><g class="timeline-node section-0"><g><path d="M0 59.7333267211914 v-54.7333267211914 q0,-5 5,-5 h180 q5,0 5,5 v59.7333267211914 H0 Z" class="node-bkg node-undefined" id="node-undefined"/><line y2="64.7333267211914" x2="190" y1="64.7333267211914" x1="0" class="node-line-0"/></g><g transform="translate(95, 10)"><text text-anchor="middle" dominant-baseline="middle" alignment-baseline="middle" dy="1em"><tspan dy="1em" x="0">Conception   projet</tspan><tspan dy="1.1em" x="0">individuel</tspan></text></g></g></g><g transform="translate(300, 459.46665344238284)" class="eventWrapper"><g class="timeline-node section-0"><g><path d="M0 77.3333251953125 v-72.3333251953125 q0,-5 5,-5 h180 q5,0 5,5 v77.3333251953125 H0 Z" class="node-bkg node-undefined" id="node-undefined"/><line y2="82.3333251953125" x2="190" y1="82.3333251953125" x1="0" class="node-line-0"/></g><g transform="translate(95, 10)"><text text-anchor="middle" dominant-baseline="middle" alignment-baseline="middle" dy="1em"><tspan dy="1em" x="0">Autoformation   -</tspan><tspan dy="1.1em" x="0">laravel</tspan><tspan dy="1.1em" x="0">(Model,Repository,API)</tspan></text></g></g></g><g transform="translate(300, 551.7999786376953)" class="eventWrapper"><g class="timeline-node section-0"><g><path d="M0 45 v-40 q0,-5 5,-5 h180 q5,0 5,5 v45 H0 Z" class="node-bkg node-undefined" id="node-undefined"/><line y2="50" x2="190" y1="50" x1="0" class="node-line-0"/></g><g transform="translate(95, 10)"><text text-anchor="middle" dominant-baseline="middle" alignment-baseline="middle" dy="1em"><tspan dy="1em" x="0">Gestion   de   projet</tspan></text></g></g></g><g transform="translate(300, 611.7999786376953)" class="eventWrapper"><g class="timeline-node section-0"><g><path d="M0 77.3333251953125 v-72.3333251953125 q0,-5 5,-5 h180 q5,0 5,5 v77.3333251953125 H0 Z" class="node-bkg node-undefined" id="node-undefined"/><line y2="82.3333251953125" x2="190" y1="82.3333251953125" x1="0" class="node-line-0"/></g><g transform="translate(95, 10)"><text text-anchor="middle" dominant-baseline="middle" alignment-baseline="middle" dy="1em"><tspan dy="1em" x="0">Mardi   après-midi</tspan><tspan dy="1.1em" x="0">(Ateliers   -</tspan><tspan dy="1.1em" x="0">Algorithme,JS,SQL,LAN)</tspan></text></g></g></g><g transform="translate(300, 704.1333038330077)" class="eventWrapper"><g class="timeline-node section-0"><g><path d="M0 77.3333251953125 v-72.3333251953125 q0,-5 5,-5 h180 q5,0 5,5 v77.3333251953125 H0 Z" class="node-bkg node-undefined" id="node-undefined"/><line y2="82.3333251953125" x2="190" y1="82.3333251953125" x1="0" class="node-line-0"/></g><g transform="translate(95, 10)"><text text-anchor="middle" dominant-baseline="middle" alignment-baseline="middle" dy="1em"><tspan dy="1em" x="0">Mini-projet   -   API</tspan><tspan dy="1.1em" x="0">pour   projet</tspan><tspan dy="1.1em" x="0">individuel</tspan></text></g></g></g><g transform="translate(300, 796.4666290283202)" class="eventWrapper"><g class="timeline-node section-0"><g><path d="M0 77.3333251953125 v-72.3333251953125 q0,-5 5,-5 h180 q5,0 5,5 v77.3333251953125 H0 Z" class="node-bkg node-undefined" id="node-undefined"/><line y2="82.3333251953125" x2="190" y1="82.3333251953125" x1="0" class="node-line-0"/></g><g transform="translate(95, 10)"><text text-anchor="middle" dominant-baseline="middle" alignment-baseline="middle" dy="1em"><tspan dy="1em" x="0">CC1   (   Backend,</tspan><tspan dy="1.1em" x="0">Maquettage,   Gestion</tspan><tspan dy="1.1em" x="0">projet)</tspan></text></g></g></g><g transform="translate(500, 184.73332672119142)" class="taskWrapper"><g class="timeline-node section-0"><g><path d="M0 62.133332061767575 v-57.133332061767575 q0,-5 5,-5 h180 q5,0 5,5 v62.133332061767575 H0 Z" class="node-bkg node-undefined" id="node-undefined"/><line y2="67.13333206176758" x2="190" y1="67.13333206176758" x1="0" class="node-line-0"/></g><g transform="translate(95, 10)"><text text-anchor="middle" dominant-baseline="middle" alignment-baseline="middle" dy="1em"><tspan dy="1em" x="0">Jeudi,Vendredi   -</tspan><tspan dy="1.1em" x="0">Mobile</tspan></text></g></g></g><g class="lineWrapper"><line stroke-dasharray="5,5" marker-end="url(#arrowhead)" stroke="black" stroke-width="2" y2="897.7999450683594" x2="595" y1="251.866658782959" x1="595"/></g><g transform="translate(500, 384.7333267211914)" class="eventWrapper"><g class="timeline-node section-0"><g><path d="M0 59.7333267211914 v-54.7333267211914 q0,-5 5,-5 h180 q5,0 5,5 v59.7333267211914 H0 Z" class="node-bkg node-undefined" id="node-undefined"/><line y2="64.7333267211914" x2="190" y1="64.7333267211914" x1="0" class="node-line-0"/></g><g transform="translate(95, 10)"><text text-anchor="middle" dominant-baseline="middle" alignment-baseline="middle" dy="1em"><tspan dy="1em" x="0">Kotlin,   POO,</tspan><tspan dy="1.1em" x="0">debugage</tspan></text></g></g></g><g transform="translate(500, 459.46665344238284)" class="eventWrapper"><g class="timeline-node section-0"><g><path d="M0 45 v-40 q0,-5 5,-5 h180 q5,0 5,5 v45 H0 Z" class="node-bkg node-undefined" id="node-undefined"/><line y2="50" x2="190" y1="50" x1="0" class="node-line-0"/></g><g transform="translate(95, 10)"><text text-anchor="middle" dominant-baseline="middle" alignment-baseline="middle" dy="1em"><tspan dy="1em" x="0">CC1   -   Kotlin,POO</tspan></text></g></g></g><g transform="translate(500, 519.4666534423828)" class="eventWrapper"><g class="timeline-node section-0"><g><path d="M0 59.7333267211914 v-54.7333267211914 q0,-5 5,-5 h180 q5,0 5,5 v59.7333267211914 H0 Z" class="node-bkg node-undefined" id="node-undefined"/><line y2="64.7333267211914" x2="190" y1="64.7333267211914" x1="0" class="node-line-0"/></g><g transform="translate(95, 10)"><text text-anchor="middle" dominant-baseline="middle" alignment-baseline="middle" dy="1em"><tspan dy="1em" x="0">Programmation   par</tspan><tspan dy="1.1em" x="0">compsants</tspan></text></g></g></g><g transform="translate(500, 594.1999801635742)" class="eventWrapper"><g class="timeline-node section-0"><g><path d="M0 59.7333267211914 v-54.7333267211914 q0,-5 5,-5 h180 q5,0 5,5 v59.7333267211914 H0 Z" class="node-bkg node-undefined" id="node-undefined"/><line y2="64.7333267211914" x2="190" y1="64.7333267211914" x1="0" class="node-line-0"/></g><g transform="translate(95, 10)"><text text-anchor="middle" dominant-baseline="middle" alignment-baseline="middle" dy="1em"><tspan dy="1em" x="0">CC2   -   Une   interface</tspan><tspan dy="1.1em" x="0">de   projet   individuel</tspan></text></g></g></g><g transform="translate(500, 668.9333068847656)" class="eventWrapper"><g class="timeline-node section-0"><g><path d="M0 77.3333251953125 v-72.3333251953125 q0,-5 5,-5 h180 q5,0 5,5 v77.3333251953125 H0 Z" class="node-bkg node-undefined" id="node-undefined"/><line y2="82.3333251953125" x2="190" y1="82.3333251953125" x1="0" class="node-line-0"/></g><g transform="translate(95, 10)"><text text-anchor="middle" dominant-baseline="middle" alignment-baseline="middle" dy="1em"><tspan dy="1em" x="0">mini-projet</tspan><tspan dy="1.1em" x="0">(Affichage   de</tspan><tspan dy="1.1em" x="0">Météo)</tspan></text></g></g></g><g transform="translate(500, 761.266632080078)" class="eventWrapper"><g class="timeline-node section-0"><g><path d="M0 59.7333267211914 v-54.7333267211914 q0,-5 5,-5 h180 q5,0 5,5 v59.7333267211914 H0 Z" class="node-bkg node-undefined" id="node-undefined"/><line y2="64.7333267211914" x2="190" y1="64.7333267211914" x1="0" class="node-line-0"/></g><g transform="translate(95, 10)"><text text-anchor="middle" dominant-baseline="middle" alignment-baseline="middle" dy="1em"><tspan dy="1em" x="0">EFM   -   Une   interface</tspan><tspan dy="1.1em" x="0">de   projet   individuel</tspan></text></g></g></g><g transform="translate(700, 50)"><g class="timeline-node section-1"><g><path d="M0 79.7333267211914 v-74.7333267211914 q0,-5 5,-5 h180 q5,0 5,5 v79.7333267211914 H0 Z" class="node-bkg node-undefined" id="node-undefined"/><line y2="84.7333267211914" x2="190" y1="84.7333267211914" x1="0" class="node-line-1"/></g><g transform="translate(95, 10)"><text text-anchor="middle" dominant-baseline="middle" alignment-baseline="middle" dy="1em"><tspan dy="1em" x="0">Web   -   5   mois</tspan></text></g></g></g><g transform="translate(700, 184.73332672119142)" class="taskWrapper"><g class="timeline-node section-1"><g><path d="M0 62.133332061767575 v-57.133332061767575 q0,-5 5,-5 h180 q5,0 5,5 v62.133332061767575 H0 Z" class="node-bkg node-undefined" id="node-undefined"/><line y2="67.13333206176758" x2="190" y1="67.13333206176758" x1="0" class="node-line-1"/></g><g transform="translate(95, 10)"><text text-anchor="middle" dominant-baseline="middle" alignment-baseline="middle" dy="1em"><tspan dy="1em" x="0">5   mois</tspan></text></g></g></g><g class="lineWrapper"><line stroke-dasharray="5,5" marker-end="url(#arrowhead)" stroke="black" stroke-width="2" y2="897.7999450683594" x2="795" y1="251.866658782959" x1="795"/></g><g transform="translate(700, 384.7333267211914)" class="eventWrapper"><g class="timeline-node section-1"><g><path d="M0 45 v-40 q0,-5 5,-5 h180 q5,0 5,5 v45 H0 Z" class="node-bkg node-undefined" id="node-undefined"/><line y2="50" x2="190" y1="50" x1="0" class="node-line-1"/></g><g transform="translate(95, 10)"><text text-anchor="middle" dominant-baseline="middle" alignment-baseline="middle" dy="1em"><tspan dy="1em" x="0">Maquettage</tspan></text></g></g></g><g transform="translate(700, 444.7333267211914)" class="eventWrapper"><g class="timeline-node section-1"><g><path d="M0 59.7333267211914 v-54.7333267211914 q0,-5 5,-5 h180 q5,0 5,5 v59.7333267211914 H0 Z" class="node-bkg node-undefined" id="node-undefined"/><line y2="64.7333267211914" x2="190" y1="64.7333267211914" x1="0" class="node-line-1"/></g><g transform="translate(95, 10)"><text text-anchor="middle" dominant-baseline="middle" alignment-baseline="middle" dy="1em"><tspan dy="1em" x="0">Lancement   de</tspan><tspan dy="1.1em" x="0">projet   collaborative</tspan></text></g></g></g><g transform="translate(700, 519.4666534423828)" class="eventWrapper"><g class="timeline-node section-1"><g><path d="M0 45 v-40 q0,-5 5,-5 h180 q5,0 5,5 v45 H0 Z" class="node-bkg node-undefined" id="node-undefined"/><line y2="50" x2="190" y1="50" x1="0" class="node-line-1"/></g><g transform="translate(95, 10)"><text text-anchor="middle" dominant-baseline="middle" alignment-baseline="middle" dy="1em"><tspan dy="1em" x="0">Backend</tspan></text></g></g></g><g transform="translate(700, 579.4666534423828)" class="eventWrapper"><g class="timeline-node section-1"><g><path d="M0 45 v-40 q0,-5 5,-5 h180 q5,0 5,5 v45 H0 Z" class="node-bkg node-undefined" id="node-undefined"/><line y2="50" x2="190" y1="50" x1="0" class="node-line-1"/></g><g transform="translate(95, 10)"><text text-anchor="middle" dominant-baseline="middle" alignment-baseline="middle" dy="1em"><tspan dy="1em" x="0">Database</tspan></text></g></g></g><g transform="translate(700, 639.4666534423828)" class="eventWrapper"><g class="timeline-node section-1"><g><path d="M0 45 v-40 q0,-5 5,-5 h180 q5,0 5,5 v45 H0 Z" class="node-bkg node-undefined" id="node-undefined"/><line y2="50" x2="190" y1="50" x1="0" class="node-line-1"/></g><g transform="translate(95, 10)"><text text-anchor="middle" dominant-baseline="middle" alignment-baseline="middle" dy="1em"><tspan dy="1em" x="0">Gestion   de   projet</tspan></text></g></g></g><g transform="translate(700, 699.4666534423828)" class="eventWrapper"><g class="timeline-node section-1"><g><path d="M0 45 v-40 q0,-5 5,-5 h180 q5,0 5,5 v45 H0 Z" class="node-bkg node-undefined" id="node-undefined"/><line y2="50" x2="190" y1="50" x1="0" class="node-line-1"/></g><g transform="translate(95, 10)"><text text-anchor="middle" dominant-baseline="middle" alignment-baseline="middle" dy="1em"><tspan dy="1em" x="0">Unit-test</tspan></text></g></g></g><g transform="translate(700, 759.4666534423828)" class="eventWrapper"><g class="timeline-node section-1"><g><path d="M0 45 v-40 q0,-5 5,-5 h180 q5,0 5,5 v45 H0 Z" class="node-bkg node-undefined" id="node-undefined"/><line y2="50" x2="190" y1="50" x1="0" class="node-line-1"/></g><g transform="translate(95, 10)"><text text-anchor="middle" dominant-baseline="middle" alignment-baseline="middle" dy="1em"><tspan dy="1em" x="0">Déploiement</tspan></text></g></g></g><g transform="translate(900, 50)"><g class="timeline-node section-2"><g><path d="M0 79.7333267211914 v-74.7333267211914 q0,-5 5,-5 h180 q5,0 5,5 v79.7333267211914 H0 Z" class="node-bkg node-undefined" id="node-undefined"/><line y2="84.7333267211914" x2="190" y1="84.7333267211914" x1="0" class="node-line-2"/></g><g transform="translate(95, 10)"><text text-anchor="middle" dominant-baseline="middle" alignment-baseline="middle" dy="1em"><tspan dy="1em" x="0">Projet   fin   de</tspan><tspan dy="1.1em" x="0">formation   -   1   mois</tspan></text></g></g></g><g transform="translate(900, 184.73332672119142)" class="taskWrapper"><g class="timeline-node section-2"><g><path d="M0 62.133332061767575 v-57.133332061767575 q0,-5 5,-5 h180 q5,0 5,5 v62.133332061767575 H0 Z" class="node-bkg node-undefined" id="node-undefined"/><line y2="67.13333206176758" x2="190" y1="67.13333206176758" x1="0" class="node-line-2"/></g><g transform="translate(95, 10)"><text text-anchor="middle" dominant-baseline="middle" alignment-baseline="middle" dy="1em"><tspan dy="1em" x="0">1   mois</tspan></text></g></g></g><g class="lineWrapper"><line stroke-dasharray="5,5" marker-end="url(#arrowhead)" stroke="black" stroke-width="2" y2="897.7999450683594" x2="995" y1="251.866658782959" x1="995"/></g><g transform="translate(900, 384.7333267211914)" class="eventWrapper"><g class="timeline-node section-2"><g><path d="M0 45 v-40 q0,-5 5,-5 h180 q5,0 5,5 v45 H0 Z" class="node-bkg node-undefined" id="node-undefined"/><line y2="50" x2="190" y1="50" x1="0" class="node-line-2"/></g><g transform="translate(95, 10)"><text text-anchor="middle" dominant-baseline="middle" alignment-baseline="middle" dy="1em"><tspan dy="1em" x="0">projet   file   rouge</tspan></text></g></g></g><text y="20" font-weight="bold" font-size="4ex" x="445"> Programme de formation : Web et Mobile</text><g class="lineWrapper"><line marker-end="url(#arrowhead)" stroke="black" stroke-width="4" y2="301.866658782959" x2="1140" y1="301.866658782959" x1="50"/></g></svg>